<?xml version="1.0" encoding="utf-8"?>
<!-- Generator: Adobe Illustrator 21.0.0, SVG Export Plug-In . SVG Version: 6.00 Build 0)  -->
<svg version="1.1" id="图层_1" xmlns="http://www.w3.org/2000/svg" xmlns:xlink="http://www.w3.org/1999/xlink" x="0px" y="0px"
	 viewBox="0 0 200 200" style="enable-background:new 0 0 200 200;" xml:space="preserve">
<path d="M50.8,130.6c0.9,2.4,3.2,3.9,5.7,3.9c1.9,0,3.8-0.7,5.2-1.9c1.5-1.2,2.3-2.9,2.3-4.8c0-0.9-0.2-1.9-0.5-2.8L39,77.2
	c-1.3-2.5-4-4-6.9-3.8c-2.8-0.2-5.5,1.3-6.7,3.8L0.8,125.1c-0.5,1-0.8,2-0.8,3.1c0,1.8,0.9,3.6,2.3,4.8c1.4,1.2,3.2,1.9,5.1,1.9
	c2.5-0.2,4.6-1.9,5.3-4.3l4.2-8.6h29.9L50.8,130.6z M22.7,110.4L32,91.1l9.4,19.4H22.7z M87.7,75.1c-2.8-0.1-5.5,0.8-7.6,2.5
	c-2,1.7-3,4.2-2.9,6.8v44.3c0,3.8,2.1,5.8,6.3,5.8c4.2,0,6.3-1.9,6.3-5.8v-16h22.5c5.1,0.1,10-2,13.4-5.8c6.8-7.6,6.8-19,0-26.6
	c-3.2-3.6-7.8-5.7-12.7-5.8L87.7,75.1z M118.6,93.9c0.2,2.2-0.4,4.4-1.9,6.1c-1.2,1.4-3,2.1-4.8,2.1H89.7V89.7
	c0-1.9,0.8-2.9,2.3-2.9h19.8c1.8,0,3.6,0.8,4.8,2.1C117.8,90.3,118.6,92.1,118.6,93.9z M194.6,80.7c-3.2-3.6-7.8-5.7-12.7-5.8h-25.4
	c-2.8-0.1-5.5,0.8-7.6,2.5c-2,1.7-3,4.2-2.9,6.8v44.3c0,3.8,2.1,5.8,6.3,5.8c4.2,0,6.3-1.9,6.3-5.8v-15.9h22.7
	c5.1,0.1,10-2,13.4-5.8c6.8-7.6,6.8-19,0-26.6L194.6,80.7z M185,100.1c-1.2,1.4-3,2.1-4.8,2.1H158V89.7c0-1.9,0.8-2.9,2.3-2.9h19.9
	c1.8,0,3.6,0.8,4.8,2.1c2.6,3.2,2.6,7.8,0,11V100.1z M172.7,143.5c-3.5,0-6.3,2.8-6.3,6.3c0,0,0,0,0,0v37.5H38.1v-37.1
	c0-3.5-2.8-6.3-6.3-6.3s-6.3,2.8-6.3,6.3v43.7c0,3.5,2.8,6.3,6.3,6.3h0h141c3.5,0,6.3-2.8,6.3-6.3c0,0,0,0,0,0v-43.7
	c0.2-3.4-2.5-6.4-6-6.6C172.9,143.5,172.8,143.5,172.7,143.5z M32,62.5c3.5,0,6.3-2.8,6.3-6.3V12.5h128v43.2c0,3.5,2.8,6.3,6.3,6.3
	c3.5,0,6.3-2.8,6.4-6.2c0,0,0,0,0,0V6.3c0-3.5-2.8-6.3-6.3-6.3c0,0,0,0,0,0H32c-3.5-0.1-6.5,2.5-6.6,6c0,0.1,0,0.2,0,0.3v50
	c0,3.5,2.8,6.3,6.3,6.3C31.8,62.5,31.9,62.5,32,62.5z"/>
</svg>
