<?xml version="1.0" encoding="utf-8"?>
<!-- Generator: Adobe Illustrator 14.0.0, SVG Export Plug-In . SVG Version: 6.00 Build 43363)  -->
<!DOCTYPE svg PUBLIC "-//W3C//DTD SVG 1.1//EN" "http://www.w3.org/Graphics/SVG/1.1/DTD/svg11.dtd">
<svg version="1.1" id="图层_1" xmlns="http://www.w3.org/2000/svg" xmlns:xlink="http://www.w3.org/1999/xlink" x="0px" y="0px"
	 width="32px" height="32px" viewBox="0 0 32 32" style="enable-background:new 0 0 32 32;" xml:space="preserve">
<path d="M4.706,0h22.588C29.893,0,32,2.107,32,4.706v22.588C32,29.893,29.893,32,27.294,32H4.706C2.107,32,0,29.893,0,27.294V4.706
	C0,2.107,2.107,0,4.706,0z M25.412,16.187c-1.281-0.41-2.977-0.435-3.6-1.263c-0.102-0.131-0.109-0.48-0.107-0.747
	c0-0.096,0.041-0.191,0.115-0.258c0.744-0.654,1.246-1.805,1.246-2.928c0-2.143-0.339-3.92-2.544-3.92
	c-1.403,0-2.063,0.691-2.353,1.729c0.605,0.381,0.987,0.911,1.228,1.385c0.544,1.085,0.618,2.438,0.618,3.62
	c0,0.773-0.162,1.567-0.475,2.296c-0.236,0.571-0.568,1.096-0.983,1.554c0.078,0.041,0.19,0.099,0.353,0.156
	c0.375,0.137,0.85,0.235,1.349,0.337c1.252,0.263,2.677,0.552,3.5,1.632c0.226,0.292,0.415,0.655,0.579,1.092h1.074V16.187z
	 M8.196,19.813c0.802-1.139,2.268-1.429,3.56-1.69c0.507-0.099,0.981-0.197,1.358-0.329c0.156-0.055,0.267-0.104,0.343-0.148
	c-0.396-0.431-0.724-0.952-0.978-1.537c-0.306-0.716-0.471-1.484-0.486-2.262c-0.012-1.002,0.051-1.765,0.182-2.413
	c0.191-0.932,0.54-1.641,1.071-2.174c0.175-0.178,0.371-0.335,0.583-0.466c-0.296-1.044-0.943-1.735-2.319-1.735
	c-2.273,0-2.593,1.798-2.571,3.956c0.012,1.1,0.513,2.246,1.249,2.897c0.075,0.066,0.118,0.163,0.117,0.264
	c0,0.266-0.018,0.613-0.111,0.736c-0.609,0.827-2.317,0.846-3.606,1.242v4.713h1.077C7.815,20.449,7.994,20.104,8.196,19.813
	L8.196,19.813z M23.783,24.486c-0.049-0.9-0.234-3.025-0.951-3.974c-1.098-1.433-4.411-0.962-5.381-2.274
	c-0.104-0.146-0.122-0.542-0.115-0.839c0.004-0.109,0.051-0.214,0.132-0.288c0.821-0.734,1.378-2.021,1.378-3.282
	c0-2.409-0.373-4.399-2.817-4.399c-2.521,0-2.876,2.011-2.852,4.434c0.012,1.237,0.566,2.517,1.387,3.247
	c0.083,0.076,0.13,0.185,0.13,0.298c0,0.298-0.018,0.685-0.126,0.828c-0.957,1.312-4.373,0.808-5.408,2.274
	c-0.682,0.969-0.872,3.076-0.925,3.976c-0.011,0.219,0.157,0.405,0.375,0.417c0.007,0,0.014,0,0.021,0h14.754
	C23.611,24.904,23.794,24.715,23.783,24.486L23.783,24.486z"/>
</svg>
