<?xml version="1.0" encoding="utf-8"?>
<!-- Generator: Adobe Illustrator 21.0.0, SVG Export Plug-In . SVG Version: 6.00 Build 0)  -->
<svg version="1.1" id="图层_1" xmlns="http://www.w3.org/2000/svg" xmlns:xlink="http://www.w3.org/1999/xlink" x="0px" y="0px"
	 viewBox="0 0 200 200" style="enable-background:new 0 0 200 200;" xml:space="preserve">
<path d="M174.7,200H25.3C11.4,200,0,188.6,0,174.7V25.3C0,11.4,11.4,0,25.3,0h149.4c14,0,25.3,11.4,25.3,25.3v149.4
	C200,188.6,188.6,200,174.7,200z M25.3,8C15.8,8,8,15.8,8,25.3l0,149.4c0,9.6,7.8,17.4,17.4,17.4l149.4,0c9.6,0,17.4-7.8,17.4-17.4
	V25.3c0-9.6-7.8-17.4-17.4-17.4H25.3z"/>
</svg>
